<svg xmlns="http://www.w3.org/2000/svg" width="796" height="711.771" viewBox="0 0 796 711.771"><path d="M299.079,648.561l-8.89-35.065a455.308,455.308,0,0,0-48.307-17.331l-1.123,16.3-4.552-17.953C215.849,588.7,202,586.134,202,586.134s18.707,71.138,57.945,125.525l45.72,8.031-35.519,5.121a184.211,184.211,0,0,0,15.888,16.837c57.079,52.982,120.655,77.29,142,54.294s-7.623-84.588-64.7-137.57c-17.7-16.425-39.924-29.606-62.175-39.979Z" transform="translate(-202 -94.114)" fill="#e6e6e6"/><path d="M383.632,610.481l10.515-34.612a455.3,455.3,0,0,0-32.395-39.806l-9.384,13.37,5.383-17.721c-14.422-15.5-24.954-24.85-24.954-24.85s-20.757,70.568-15.28,137.406L352.5,674.775,319.451,660.8a184.209,184.209,0,0,0,4.9,22.626c21.476,74.859,63.335,128.531,93.494,119.878s37.2-76.352,15.722-151.211c-6.658-23.207-18.874-45.981-32.559-66.362Z" transform="translate(-202 -94.114)" fill="#e6e6e6"/><path d="M884.18,752.056l6.615-7.145a122.556,122.556,0,0,0-3.164-13.447l-3.844,2.134,3.387-3.658c-1.67-5.449-3.121-8.951-3.121-8.951s-13.323,14.647-19.855,31.475l4.885,11.5-6.36-7.27a49.563,49.563,0,0,0-1.474,6.054c-3.6,20.651.224,38.569,8.544,40.019S887.777,788.653,891.378,768a65.28,65.28,0,0,0-.081-19.9Z" transform="translate(-202 -94.114)" fill="#e6e6e6"/><path d="M982.049,766.186l9.356-2.7a122.551,122.551,0,0,0,4.242-13.147l-4.394-.16,4.79-1.381c1.388-5.527,1.956-9.276,1.956-9.276s-18.976,5.652-33.266,16.681l-1.763,12.37-1.687-9.511a49.579,49.579,0,0,0-4.392,4.421c-13.757,15.817-19.744,33.132-13.372,38.675s22.691-2.786,36.448-18.6a65.283,65.283,0,0,0,10.215-17.075Z" transform="translate(-202 -94.114)" fill="#e6e6e6"/><path d="M720.5,142.406V754.57a48.3,48.3,0,0,1-48.282,48.292h-237.9A48.307,48.307,0,0,1,386,754.564V142.406a48.306,48.306,0,0,1,48.312-48.292H463.17a22.966,22.966,0,0,0,21.246,31.617H620.047a22.966,22.966,0,0,0,21.246-31.617h30.912A48.3,48.3,0,0,1,720.5,142.4Z" transform="translate(-202 -94.114)" fill="#3f3d56"/><path d="M519.728,347.655a23.879,23.879,0,0,1,11.951-20.691,23.892,23.892,0,1,0,0,41.378A23.877,23.877,0,0,1,519.728,347.655Z" transform="translate(-202 -94.114)" fill="#fff"/><path d="M549.764,347.655a23.879,23.879,0,0,1,11.951-20.691,23.892,23.892,0,1,0,0,41.378A23.877,23.877,0,0,1,549.764,347.655Z" transform="translate(-202 -94.114)" fill="#fff"/><circle cx="23.892" cy="23.892" r="23.892" transform="translate(353.225 229.649)" fill="#0082f3"/><rect width="213.564" height="2" transform="translate(244.574 409.904)" fill="#fff"/><circle cx="6.744" cy="6.744" r="6.744" transform="translate(244.575 383.927)" fill="#0082f3"/><rect width="213.564" height="2" transform="translate(244.574 477.345)" fill="#fff"/><circle cx="6.744" cy="6.744" r="6.744" transform="translate(244.575 451.369)" fill="#0082f3"/><path d="M619.046,422.279H479.8a5.006,5.006,0,0,1-5-5V278.032a5.006,5.006,0,0,1,5-5H619.046a5.006,5.006,0,0,1,5,5V417.279A5.006,5.006,0,0,1,619.046,422.279ZM479.8,275.032a3,3,0,0,0-3,3V417.279a3,3,0,0,0,3,3H619.046a3,3,0,0,0,3-3V278.032a3,3,0,0,0-3-3Z" transform="translate(-202 -94.114)" fill="#fff"/><rect width="75.31" height="31.473" rx="4" transform="translate(382.83 522.182)" fill="#0082f3"/><rect width="795.205" height="2" transform="translate(0.795 707.767)" fill="#3f3d56"/><path d="M846.521,419.2s-2.768,17.533,0,20.3-17.533,25.838-17.533,25.838l-16.61-23.07s7.382-12,4.614-22.147Z" transform="translate(-202 -94.114)" fill="#ffb8b8"/><path d="M583.621,457.039l-12,128.267,4.61,99.661,22.147-6.459L599.3,589l25.841-77.513,15.684,83.974-1.849,84.9,27.684.924,1.849-94.124,3.243-131.46Z" fill="#2f2e41"/><path d="M841.907,771.7V792s-4.614,14.765,10.151,13.842,13.842-7.382,13.842-7.382l-5.537-24.915Z" transform="translate(-202 -94.114)" fill="#2f2e41"/><path d="M799.459,771.7V792s4.614,14.765-10.151,13.842-13.842-7.382-13.842-7.382L781,773.547Z" transform="translate(-202 -94.114)" fill="#2f2e41"/><circle cx="21.224" cy="21.224" r="21.224" transform="translate(607.609 292.784)" fill="#ffb8b8"/><path d="M829.911,455.185l1.846-9.228h4.614l8.922-12.834,7.688,7.3,1.846,43.371H804.995l4.614-46.139,6.719-4.529s-1.183,15.6,11.736,15.6Z" transform="translate(-202 -94.114)" fill="#575a89"/><path d="M810.532,445.034s7.642,9.674,19.047,8.99,22.479-9.913,22.479-9.913l15.688,119.963s-17.533,1.846-23.07-7.382l-42.448-.923.923-111.657Z" transform="translate(-202 -94.114)" fill="#d0cde1"/><path d="M816.762,431.531l-40.373,19.963,10.151,57.213s3.691,21.224,0,29.529-7.382,63.672-7.382,63.672,41.526,4.614,35.989-60.9S816.762,431.531,816.762,431.531Z" transform="translate(-202 -94.114)" fill="#2f2e41"/><path d="M792.076,569.61l5.537,5.537s16.61,28.606,23.992,18.456-12.919-27.684-12.919-27.684l-9.228-7.382Z" transform="matrix(0.974, 0.225, -0.225, 0.974, -65.467, -253.003)" fill="#ffb8b8"/><path d="M845.314,431.531l39.964,19.963L871.436,519.78s.923,22.147,5.537,34.143,2.768,47.062,2.768,47.062-5.537,21.224-17.533-31.375S845.314,431.531,845.314,431.531Z" transform="translate(-202 -94.114)" fill="#2f2e41"/><path d="M876.05,536.39h-8.3s-27.684-3.691-25.838,7.382,27.684,8.305,27.684,8.305l10.151-.923Z" transform="translate(-202 -94.114)" fill="#ffb8b8"/><path d="M781.926,448.725l-6.46,2.768s-6.46,13.842-7.382,18.456-12,59.981-9.228,66.441,30.452,40.6,30.452,40.6L805,560.383l-23.069-31.375,6.46-39.68Z" transform="matrix(0.996, 0.087, -0.087, 0.996, -159.327, -160.293)" fill="#2f2e41"/><path d="M871.436,449.648l12.21,1.03,2.555.815s25.838,70.132,20.3,81.205-29.529,31.375-29.529,31.375l-6.46-28.606,12-11.073-12-36.911Z" transform="translate(-202 -94.114)" fill="#2f2e41"/><path d="M848.79,391.757s5.552-10.419-6.663-11.366c0,0-11.1-6.63-19.989.947,0,0-7.773-1.894-9.995,3.789,0,0-1.11-2.842,2.221-4.736,0,0-7.773-1.894-7.773,7.578,0,0-3.331,9.472,0,18s4.442,9.472,4.442,9.472-5.475-17.873,7.851-18.82,28.24-9.122,29.35,1.3,3.331,13.261,3.331,13.261S861.561,396.019,848.79,391.757Z" transform="translate(-202 -94.114)" fill="#2f2e41"/></svg>